<svg width="1740" height="480" viewBox="0 0 1740 480" fill="none" xmlns="http://www.w3.org/2000/svg">
<path d="M553.429 309.36C536.789 309.36 522.789 305.68 511.429 298.32C500.069 290.8 492.069 280.64 487.429 267.84L515.749 251.28C522.309 268.4 535.189 276.96 554.389 276.96C563.669 276.96 570.469 275.28 574.789 271.92C579.109 268.56 581.269 264.32 581.269 259.2C581.269 253.28 578.629 248.72 573.349 245.52C568.069 242.16 558.629 238.56 545.029 234.72C537.509 232.48 531.109 230.24 525.829 228C520.709 225.76 515.509 222.8 510.229 219.12C505.109 215.28 501.189 210.48 498.469 204.72C495.749 198.96 494.389 192.24 494.389 184.56C494.389 169.36 499.749 157.28 510.469 148.32C521.349 139.2 534.389 134.64 549.589 134.64C563.189 134.64 575.109 138 585.349 144.72C595.749 151.28 603.829 160.48 609.589 172.32L581.749 188.4C575.029 174 564.309 166.8 549.589 166.8C542.709 166.8 537.269 168.4 533.269 171.6C529.429 174.64 527.509 178.64 527.509 183.6C527.509 188.88 529.669 193.2 533.989 196.56C538.469 199.76 546.949 203.28 559.429 207.12C564.549 208.72 568.389 210 570.949 210.96C573.669 211.76 577.269 213.12 581.749 215.04C586.389 216.8 589.909 218.48 592.309 220.08C594.869 221.68 597.749 223.84 600.949 226.56C604.149 229.28 606.549 232.08 608.149 234.96C609.909 237.84 611.349 241.36 612.469 245.52C613.749 249.52 614.389 253.92 614.389 258.72C614.389 274.24 608.709 286.56 597.349 295.68C586.149 304.8 571.509 309.36 553.429 309.36ZM699.675 215.76H672.555V265.68C672.555 269.84 673.595 272.88 675.675 274.8C677.755 276.72 680.795 277.84 684.795 278.16C688.795 278.32 693.755 278.24 699.675 277.92V306C678.395 308.4 663.355 306.4 654.555 300C645.915 293.6 641.595 282.16 641.595 265.68V215.76H620.715V186H641.595V161.76L672.555 152.4V186H699.675V215.76ZM808.954 186H839.914V306H808.954V291.84C799.674 303.52 786.634 309.36 769.834 309.36C753.834 309.36 740.074 303.28 728.554 291.12C717.194 278.8 711.514 263.76 711.514 246C711.514 228.24 717.194 213.28 728.554 201.12C740.074 188.8 753.834 182.64 769.834 182.64C786.634 182.64 799.674 188.48 808.954 200.16V186ZM751.834 270.48C758.074 276.72 765.994 279.84 775.594 279.84C785.194 279.84 793.114 276.72 799.354 270.48C805.754 264.08 808.954 255.92 808.954 246C808.954 236.08 805.754 228 799.354 221.76C793.114 215.36 785.194 212.16 775.594 212.16C765.994 212.16 758.074 215.36 751.834 221.76C745.594 228 742.474 236.08 742.474 246C742.474 255.92 745.594 264.08 751.834 270.48ZM937.828 182.64C953.988 182.64 967.748 188.8 979.108 201.12C990.628 213.28 996.388 228.24 996.388 246C996.388 263.76 990.628 278.8 979.108 291.12C967.748 303.28 953.988 309.36 937.828 309.36C921.028 309.36 908.068 303.52 898.948 291.84V306H867.988V138H898.948V200.16C908.068 188.48 921.028 182.64 937.828 182.64ZM908.308 270.48C914.548 276.72 922.468 279.84 932.068 279.84C941.668 279.84 949.588 276.72 955.828 270.48C962.228 264.08 965.428 255.92 965.428 246C965.428 236.08 962.228 228 955.828 221.76C949.588 215.36 941.668 212.16 932.068 212.16C922.468 212.16 914.548 215.36 908.308 221.76C902.068 228 898.948 236.08 898.948 246C898.948 255.92 902.068 264.08 908.308 270.48ZM1018.22 306V130.8H1049.18V306H1018.22ZM1103.68 258.72C1107.84 273.76 1119.12 281.28 1137.52 281.28C1149.36 281.28 1158.32 277.28 1164.4 269.28L1189.36 283.68C1177.52 300.8 1160.08 309.36 1137.04 309.36C1117.2 309.36 1101.28 303.36 1089.28 291.36C1077.28 279.36 1071.28 264.24 1071.28 246C1071.28 227.92 1077.2 212.88 1089.04 200.88C1100.88 188.72 1116.08 182.64 1134.64 182.64C1152.24 182.64 1166.72 188.72 1178.08 200.88C1189.6 213.04 1195.36 228.08 1195.36 246C1195.36 250 1194.96 254.24 1194.16 258.72H1103.68ZM1103.2 234.72H1164.4C1162.64 226.56 1158.96 220.48 1153.36 216.48C1147.92 212.48 1141.68 210.48 1134.64 210.48C1126.32 210.48 1119.44 212.64 1114 216.96C1108.56 221.12 1104.96 227.04 1103.2 234.72ZM1329.53 138V169.68H1284.17V306H1251.05V169.68H1205.93V138H1329.53ZM1362.31 206.64C1365.19 198.96 1369.91 193.2 1376.47 189.36C1383.19 185.52 1390.63 183.6 1398.79 183.6V218.16C1389.35 217.04 1380.87 218.96 1373.35 223.92C1365.99 228.88 1362.31 237.12 1362.31 248.64V306H1331.35V186H1362.31V206.64ZM1496.09 186H1527.05V306H1496.09V292.56C1488.57 303.76 1476.65 309.36 1460.33 309.36C1447.21 309.36 1436.33 304.96 1427.69 296.16C1419.21 287.36 1414.97 275.2 1414.97 259.68V186H1445.93V255.84C1445.93 263.84 1448.09 270 1452.41 274.32C1456.73 278.48 1462.49 280.56 1469.69 280.56C1477.69 280.56 1484.09 278.08 1488.89 273.12C1493.69 268.16 1496.09 260.72 1496.09 250.8V186ZM1583.03 220.08C1583.03 223.28 1585.11 225.92 1589.27 228C1593.59 229.92 1598.79 231.68 1604.87 233.28C1610.95 234.72 1617.03 236.64 1623.11 239.04C1629.19 241.28 1634.31 245.12 1638.47 250.56C1642.79 256 1644.95 262.8 1644.95 270.96C1644.95 283.28 1640.31 292.8 1631.03 299.52C1621.91 306.08 1610.47 309.36 1596.71 309.36C1572.07 309.36 1555.27 299.84 1546.31 280.8L1573.19 265.68C1576.71 276.08 1584.55 281.28 1596.71 281.28C1607.75 281.28 1613.27 277.84 1613.27 270.96C1613.27 267.76 1611.11 265.2 1606.79 263.28C1602.63 261.2 1597.51 259.36 1591.43 257.76C1585.35 256.16 1579.27 254.16 1573.19 251.76C1567.11 249.36 1561.91 245.6 1557.59 240.48C1553.43 235.2 1551.35 228.64 1551.35 220.8C1551.35 208.96 1555.67 199.68 1564.31 192.96C1573.11 186.08 1583.99 182.64 1596.95 182.64C1606.71 182.64 1615.59 184.88 1623.59 189.36C1631.59 193.68 1637.91 199.92 1642.55 208.08L1616.15 222.48C1612.31 214.32 1605.91 210.24 1596.95 210.24C1592.95 210.24 1589.59 211.12 1586.87 212.88C1584.31 214.64 1583.03 217.04 1583.03 220.08ZM1729.99 215.76H1702.87V265.68C1702.87 269.84 1703.91 272.88 1705.99 274.8C1708.07 276.72 1711.11 277.84 1715.11 278.16C1719.11 278.32 1724.07 278.24 1729.99 277.92V306C1708.71 308.4 1693.67 306.4 1684.87 300C1676.23 293.6 1671.91 282.16 1671.91 265.68V215.76H1651.03V186H1671.91V161.76L1702.87 152.4V186H1729.99V215.76Z" fill="#FF0302"/>
<path d="M295.411 64.1797C322.324 116.948 337.501 176.702 337.501 240.001C337.501 303.301 322.324 363.055 295.41 415.824C357.714 381.943 400.003 315.911 400.003 240.002C400.003 164.093 357.714 98.061 295.411 64.1797Z" fill="#FF0302"/>
<path d="M205.481 59.9826C196.434 47.1673 181.024 40.2656 165.568 42.9477C71.5184 59.2691 0 141.282 0 239.998C0 338.715 71.518 420.727 165.567 437.049C181.023 439.731 196.434 432.83 205.48 420.014C241.403 369.125 262.505 307.026 262.505 239.998C262.505 172.971 241.404 110.872 205.481 59.9826Z" fill="#FF0302"/>
</svg>
